<?xml version="1.0" encoding="utf-8" standalone="no"?><!DOCTYPE svg PUBLIC "-//W3C//DTD SVG 20010904//EN" "http://www.w3.org/TR/2001/REC-SVG-20010904/DTD/svg10.dtd"><svg xmlns="http://www.w3.org/2000/svg" width="504" height="400" xmlns:xlink="http://www.w3.org/1999/xlink"><source><![CDATA[Title: Diagrama de Sequencia\n da Api de Exames

Cliente -> Api Rest: Requisita lista\n de exames
Api Rest-> Service: 
Service-> Mock: 
Mock ->> Service: Devolve a lista\n de exames
Service -->> Cliente: devolve a lista com\n nome e id dos exames]]></source><desc>Diagrama de Sequencia
 da Api de Exames</desc><defs><marker viewBox="0 0 5 5" markerWidth="5" markerHeight="5" orient="auto" refX="5" refY="2.5" id="markerArrowBlock"><path d="M 0 0 L 5 2.5 L 0 5 z"></path></marker><marker viewBox="0 0 9.6 16" markerWidth="4" markerHeight="16" orient="auto" refX="9.6" refY="8" id="markerArrowOpen"><path d="M 9.6,8 1.92,16 0,13.7 5.76,8 0,2.286 1.92,0 9.6,8 z"></path></marker></defs><g class="title"><path d="M10,10C62.1,1.7 74.4,18.3 217.0,10.0C214.9,18.0 219.0,43.3 217.0,60.2C100.8,68.5 77.9,51.9 10.0,60.2C8.0,46.0 12.0,23.6 10.0,10.0" stroke="#000000" fill="#ffffff" style="stroke-width: 2;"></path><text x="16" y="29" style="font-size: 16px; font-family: danielbd;"><tspan x="15">Diagrama de Sequencia</tspan><tspan dy="1.2em" x="15">da Api de Exames</tspan></text></g><g class="actor"><path d="M10,70.1875C22.6,73.3 28.8,67.0 88.4,70.2C90.1,80.0 86.8,86.6 88.4,111.2C22.6,114.3 41.9,108.0 10.0,111.2C8.4,80.0 11.6,76.7 10.0,70.2" stroke="#000000" fill="#ffffff" style="stroke-width: 2;"></path><text x="20" y="96.1875" style="font-size: 16px; font-family: danielbd;"><tspan x="20">Cliente</tspan></text></g><g class="actor"><path d="M10,339.75C28.8,336.6 37.7,342.9 88.4,339.8C86.8,364.3 90.1,370.0 88.4,380.8C46.8,377.6 32.7,383.9 10.0,380.8C8.4,358.9 11.6,351.6 10.0,339.8" stroke="#000000" fill="#ffffff" style="stroke-width: 2;"></path><text x="20" y="365.75" style="font-size: 16px; font-family: danielbd;"><tspan x="20">Cliente</tspan></text></g><path d="M49.2,111.2C40.1,232.5 58.4,208.6 49.2,339.8" stroke="#000000" fill="none" style="stroke-width: 2;"></path><g class="actor"><path d="M138.671875,70.1875C195.6,74.1 202.4,66.3 236.1,70.2C234.5,84.7 237.8,85.4 236.1,111.2C206.7,107.3 154.3,115.1 138.7,111.2C137.0,80.0 140.3,85.4 138.7,70.2" stroke="#000000" fill="#ffffff" style="stroke-width: 2;"></path><text x="149.671875" y="94.1875" style="font-size: 16px; font-family: danielbd;"><tspan x="148.671875">Api Rest</tspan></text></g><g class="actor"><path d="M138.671875,339.75C162.3,335.9 154.3,343.6 236.1,339.8C234.5,347.6 237.8,356.2 236.1,380.8C220.5,384.6 200.0,376.9 138.7,380.8C140.3,373.7 137.0,368.3 138.7,339.8" stroke="#000000" fill="#ffffff" style="stroke-width: 2;"></path><text x="149.671875" y="363.75" style="font-size: 16px; font-family: danielbd;"><tspan x="148.671875">Api Rest</tspan></text></g><path d="M187.4,111.2C178.3,166.0 196.5,240.8 187.4,339.8" stroke="#000000" fill="none" style="stroke-width: 2;"></path><g class="actor"><path d="M256.140625,70.1875C286.6,67.0 323.0,73.4 335.8,70.2C337.4,104.6 334.1,96.8 335.8,111.2C297.9,114.4 306.2,108.0 256.1,111.2C254.5,104.6 257.8,79.0 256.1,70.2" stroke="#000000" fill="#ffffff" style="stroke-width: 2;"></path><text x="267.140625" y="95.6875" style="font-size: 16px; font-family: danielbd;"><tspan x="266.140625">Service</tspan></text></g><g class="actor"><path d="M256.140625,339.75C300.8,336.6 323.0,342.9 335.8,339.8C337.4,350.3 334.1,351.4 335.8,380.8C316.6,377.6 323.0,383.9 256.1,380.8C257.8,363.2 254.5,349.6 256.1,339.8" stroke="#000000" fill="#ffffff" style="stroke-width: 2;"></path><text x="267.140625" y="365.25" style="font-size: 16px; font-family: danielbd;"><tspan x="266.140625">Service</tspan></text></g><path d="M295.9,111.2C305.1,303.2 286.8,208.5 295.9,339.8" stroke="#000000" fill="none" style="stroke-width: 2;"></path><g class="actor"><path d="M410,70.1875C464.2,72.8 422.5,67.6 474.6,70.2C476.2,95.1 472.9,91.7 474.6,111.2C427.0,108.6 450.9,113.8 410.0,111.2C411.6,84.3 408.4,77.4 410.0,70.2" stroke="#000000" fill="#ffffff" style="stroke-width: 2;"></path><text x="420" y="96.1875" style="font-size: 16px; font-family: danielbd;"><tspan x="420">Mock</tspan></text></g><g class="actor"><path d="M410,339.75C448.7,337.2 435.2,342.3 474.6,339.8C472.9,348.6 476.2,371.9 474.6,380.8C440.8,383.3 459.1,378.2 410.0,380.8C411.6,370.9 408.4,370.1 410.0,339.8" stroke="#000000" fill="#ffffff" style="stroke-width: 2;"></path><text x="420" y="365.75" style="font-size: 16px; font-family: danielbd;"><tspan x="420">Mock</tspan></text></g><path d="M442.3,111.2C451.4,194.3 433.1,166.0 442.3,339.8" stroke="#000000" fill="none" style="stroke-width: 2;"></path><g class="signal"><text x="59.21875" y="132.09375" style="font-size: 16px; font-family: danielbd;"><tspan x="59.21875">Requisita lista</tspan><tspan dy="1.2em" x="59.21875">de exames</tspan></text><path d="M49.2,167.4C165.3,172.9 154.2,161.8 187.4,167.4" stroke="#000000" fill="none" style="stroke-width: 2; marker-end: url(&quot;#markerArrowBlock&quot;);"></path></g><g class="signal"><text x="241.67578125" y="192.375" style="font-size: 16px; font-family: danielbd;"><tspan x="241.67578125"></tspan></text><path d="M187.4,187.4C247.3,191.7 269.9,183.0 295.9,187.4" stroke="#000000" fill="none" style="stroke-width: 2; marker-end: url(&quot;#markerArrowBlock&quot;);"></path></g><g class="signal"><text x="369.1171875" y="212.375" style="font-size: 16px; font-family: danielbd;"><tspan x="369.1171875"></tspan></text><path d="M295.9,207.4C396.8,201.5 392.2,213.2 442.3,207.4" stroke="#000000" fill="none" style="stroke-width: 2; marker-end: url(&quot;#markerArrowBlock&quot;);"></path></g><g class="signal"><text x="306.9453125" y="228.28125" style="font-size: 16px; font-family: danielbd;"><tspan x="305.9453125">Devolve a lista</tspan><tspan dy="1.2em" x="305.9453125">de exames</tspan></text><path d="M442.3,263.6C375.5,257.7 408.1,269.4 295.9,263.6" stroke="#000000" fill="none" style="stroke-width: 2; marker-end: url(&quot;#markerArrowOpen&quot;);"></path></g><g class="signal"><text x="78.73046875" y="284.46875" style="font-size: 16px; font-family: danielbd;"><tspan x="78.73046875">devolve a lista com</tspan><tspan dy="1.2em" x="78.73046875">nome e id dos exames</tspan></text><path d="M295.9,319.8C236.7,329.6 108.4,309.9 49.2,319.8" stroke="#000000" fill="none" style="stroke-width: 2; stroke-dasharray: 6, 2; marker-end: url(&quot;#markerArrowOpen&quot;);"></path></g></svg>